<?xml version="1.0" encoding="utf-8"?>
<!-- Generator: Adobe Illustrator 17.0.0, SVG Export Plug-In . SVG Version: 6.00 Build 0)  -->
<!DOCTYPE svg PUBLIC "-//W3C//DTD SVG 1.1//EN" "http://www.w3.org/Graphics/SVG/1.1/DTD/svg11.dtd">
<svg version="1.1" id="Layer_1" xmlns="http://www.w3.org/2000/svg" xmlns:xlink="http://www.w3.org/1999/xlink" x="0px" y="0px"
	 width="1000px" height="1000px" viewBox="0 0 1000 1000" enable-background="new 0 0 1000 1000" xml:space="preserve">
<g opacity="0">
	<path fill="#4FA0CA" d="M603.227,536.001c1.479,5.519-4.637,22.662-4.637,22.662s-13.869-11.789-15.347-17.307
		s1.796-11.191,7.315-12.67S601.748,530.482,603.227,536.001z"/>
	<circle fill="#FFFFFF" cx="593.552" cy="539.863" r="3.946"/>
</g>
<g>
	<g>
		<circle fill="none" cx="500" cy="500" r="258.621"/>
		<path fill="#FFFFFF" d="M758.621,500h-3.103c-0.002,70.569-28.595,134.428-74.839,180.678
			c-46.25,46.244-110.11,74.838-180.679,74.839c-70.569-0.002-134.429-28.595-180.678-74.839
			C273.078,634.429,244.484,570.569,244.483,500c0.002-70.569,28.595-134.429,74.839-180.678
			c46.249-46.244,110.109-74.838,180.678-74.839c70.569,0.002,134.428,28.595,180.678,74.839
			c46.244,46.249,74.838,110.109,74.839,180.678H758.621h3.103C761.722,355.453,644.547,238.278,500,238.276
			C355.453,238.278,238.278,355.452,238.276,500C238.278,644.547,355.452,761.722,500,761.724
			C644.547,761.722,761.722,644.547,761.724,500H758.621z"/>
	</g>
	<g>
		<g>
			<g>
				<g>
					
						<rect x="471.103" y="609.452" transform="matrix(0.9659 -0.2588 0.2588 0.9659 -144.8411 146.8979)" fill="#FFFFFF" width="28.803" height="28.221"/>
					<polygon fill="#FFFFFF" points="484.879,563.428 486.574,569.751 479.618,571.615 472.662,573.479 458.751,577.206 
						430.788,584.699 424.484,586.464 415.165,551.685 387.343,559.14 404.135,621.811 521.889,590.259 505.096,527.589 
						477.274,535.044 					"/>
					
						<rect x="435.996" y="618.832" transform="matrix(-0.9659 0.2588 -0.2588 -0.9659 1049.2598 1127.7531)" fill="#FFFFFF" width="28.803" height="28.221"/>
					
						<rect x="462.238" y="649.031" transform="matrix(0.9659 -0.2588 0.2588 0.9659 -155.3865 145.9521)" fill="#FFFFFF" width="28.803" height="28.221"/>
					<path fill="#FFFFFF" d="M626.67,559.47l-0.79-2.95l-1.04-3.86l-0.97-3.65l-0.91-3.38l-0.88-3.3l-0.98-3.65l-0.96-3.58l-1.9-7.1
						l-1.9-7.1l-3.81-14.19l-1.73-6.46l-3.93,1.05l-3.94,1.05l-7.87,2.11l-15.74,4.22l-15.73,4.22l-7.87,2.1l-7.66,2.06l0.22,0.54
						l7.72,28.81l0.6,2.24l0.3,1.13l0.15,0.56l0.08,0.28l-7.1,1.9l-0.43-1.61l-0.53-1.97l-1.05-3.94l-1.94-7.23l-3.86-14.41
						l-15.44-57.61l-27.82,7.46l0.64,2.39l0.41,1.54l20.56,76.72l1.73,6.47l3.86,14.4l0.81,3.02l0.77,2.88l0.8,2.95l1.13,4.22
						l0.17,0.63l1.19-0.32l1.05-0.28l2.25-0.6l4.43-1.19l8.85-2.37l9.2-2.47l1.97-0.52l6.18-1.66l0.28-0.08l9.77-2.61l10.05-2.69
						l10.11-2.72l10.05-2.69l13.42-3.59l4.43-1.19l2.17-0.58l1.13-0.3l1.05-0.29L626.67,559.47z M593.5,559.73
						c0,0-16.73-14.23-18.52-20.89c-1.78-6.66,2.17-13.5,8.83-15.29c6.66-1.78,13.51,2.17,15.29,8.83
						C600.89,539.04,593.5,559.73,593.5,559.73z"/>
					
						<rect x="438.511" y="373.982" transform="matrix(-0.9659 0.2588 -0.2588 -0.9659 990.8358 645.7454)" fill="#FFFFFF" width="28.803" height="28.221"/>
					
						<rect x="403.453" y="383.375" transform="matrix(-0.9659 0.2588 -0.2588 -0.9659 924.3448 673.2847)" fill="#FFFFFF" width="28.803" height="28.221"/>
					
						<rect x="368.906" y="392.707" transform="matrix(-0.9659 0.2588 -0.2588 -0.9659 858.8426 700.5718)" fill="#FFFFFF" width="28.803" height="28.221"/>
					<polygon fill="#FFFFFF" points="454.193,447.321 447.027,449.241 437.689,414.393 409.586,421.923 417.267,450.589 
						418.923,456.771 412.178,458.579 404.573,430.194 402.841,423.73 395.815,425.613 388.649,427.533 374.737,431.261 
						375.039,432.385 391.907,495.337 393.187,500.114 386.442,501.922 367.993,433.068 340.17,440.523 365.999,536.918 
						428.951,520.05 420.065,486.888 454.632,477.626 471.916,472.995 489.481,468.288 481.875,439.904 472.537,405.055 
						444.856,412.473 					"/>
					<polygon fill="#FFFFFF" points="593.943,372.45 591.56,373.088 544.12,385.799 542.257,378.844 566.105,372.454 
						592.911,365.271 585.606,338.011 558.801,345.193 530.978,352.648 505.98,359.347 514.226,390.12 520.419,413.235 
						522.547,421.174 553.455,412.892 570.323,408.373 573.424,407.542 575.25,414.357 573.936,414.709 558.93,418.73 
						528.954,426.762 517.224,429.905 517.318,430.256 517.248,430.275 516.815,428.659 516.288,426.692 515.233,422.757 
						513.294,415.521 509.435,401.118 493.998,343.506 466.176,350.961 466.816,353.349 467.23,354.895 487.788,431.617 
						489.519,438.081 493.379,452.484 494.188,455.505 494.96,458.386 495.751,461.337 496.88,465.552 497.05,466.185 
						498.244,465.865 499.298,465.582 501.546,464.98 505.973,463.794 514.825,461.422 524.942,458.711 532.46,456.697 
						538.943,454.959 549.333,452.175 570.149,446.598 611.78,435.443 606.961,417.457 603.309,403.826 599.241,388.645 
						594.837,372.21 					"/>
					<path fill="#FFFFFF" d="M587.42,532.28c-2.63,0-4.76,2.13-4.76,4.76c0,0.93,0.26,1.79,0.72,2.52c0.84,1.35,2.34,2.24,4.04,2.24
						c1.55,0,2.94-0.74,3.81-1.9c0.61-0.8,0.96-1.78,0.96-2.86C592.19,534.41,590.05,532.28,587.42,532.28z"/>
				</g>
				<g>
					<path fill="#FFFFFF" d="M521.274,610.364c-0.59-1.167-1.412-1.94-2.465-2.322c-1.049-0.378-2.188-0.405-3.409-0.079
						c-1.039,0.279-1.879,0.714-2.513,1.302s-1.103,1.274-1.406,2.062c-0.305,0.788-0.455,1.636-0.457,2.542
						c-0.002,0.905,0.121,1.814,0.364,2.726c0.267,0.992,0.632,1.901,1.097,2.728c0.467,0.823,1.024,1.503,1.683,2.031
						c0.657,0.531,1.41,0.893,2.263,1.083c0.853,0.189,1.798,0.145,2.839-0.133c0.766-0.205,1.41-0.514,1.936-0.925
						c0.525-0.41,0.946-0.899,1.259-1.461c0.309-0.564,0.505-1.186,0.582-1.869c0.081-0.685,0.044-1.39-0.097-2.122l2.318-0.62
						c0.362,2.26,0.063,4.167-0.897,5.734c-0.958,1.563-2.55,2.644-4.78,3.241c-1.348,0.362-2.588,0.445-3.722,0.253
						c-1.133-0.194-2.142-0.608-3.027-1.241c-0.883-0.635-1.641-1.461-2.271-2.479c-0.628-1.016-1.113-2.158-1.453-3.427
						c-0.339-1.269-0.481-2.507-0.422-3.719c0.059-1.209,0.325-2.32,0.792-3.338c0.471-1.011,1.158-1.899,2.061-2.655
						c0.903-0.757,2.023-1.312,3.356-1.67c0.911-0.245,1.806-0.354,2.685-0.327c0.879,0.026,1.697,0.188,2.459,0.491
						c0.76,0.303,1.447,0.752,2.057,1.344c0.614,0.596,1.109,1.338,1.489,2.231L521.274,610.364z"/>
					<path fill="#FFFFFF" d="M529.972,602.413l2.56-0.686l11.474,15.594l-2.562,0.687l-3.31-4.736l-7.365,1.974l-0.548,5.768
						l-2.368,0.634L529.972,602.413z M530.976,613.098l5.906-1.582l-5.079-7.346l-0.048,0.014L530.976,613.098z"/>
					<path fill="#FFFFFF" d="M545.073,611.336c0.325,1.079,0.893,1.852,1.705,2.313s1.73,0.645,2.75,0.546l-1.732-6.466
						c-0.921,0.02-1.725-0.014-2.421-0.096c-0.693-0.085-1.295-0.248-1.802-0.487c-0.511-0.236-0.929-0.583-1.259-1.033
						c-0.331-0.451-0.592-1.036-0.784-1.752c-0.196-0.729-0.244-1.439-0.149-2.117c0.097-0.678,0.311-1.302,0.638-1.869
						c0.325-0.568,0.762-1.063,1.299-1.487c0.542-0.422,1.154-0.756,1.843-0.99l-0.432-1.612l1.34-0.359l0.438,1.637
						c1.36-0.191,2.542,0.014,3.54,0.619c1,0.605,1.853,1.578,2.562,2.922l-2.073,0.556c-0.76-1.52-1.921-2.221-3.493-2.096
						l1.608,6.001l1.57-0.002c0.348-0.005,0.768,0.034,1.261,0.121c0.493,0.084,0.992,0.252,1.493,0.5
						c0.503,0.248,0.968,0.602,1.398,1.066c0.428,0.458,0.742,1.064,0.94,1.811c0.214,0.796,0.271,1.542,0.168,2.23
						c-0.101,0.69-0.329,1.322-0.681,1.895c-0.352,0.573-0.818,1.08-1.398,1.514c-0.582,0.432-1.253,0.788-2.018,1.062l0.537,2
						l-1.34,0.359l-0.537-2c-1.671,0.275-3.114,0.056-4.336-0.655c-1.218-0.711-2.119-1.902-2.709-3.574L545.073,611.336z
						 M545.683,599.85c-0.76,0.291-1.346,0.75-1.764,1.374c-0.414,0.626-0.499,1.403-0.251,2.331
						c0.113,0.422,0.279,0.766,0.497,1.029c0.22,0.263,0.481,0.465,0.788,0.599c0.307,0.136,0.651,0.23,1.028,0.285
						c0.384,0.058,0.792,0.085,1.23,0.088L545.683,599.85z M550.867,613.837c0.445-0.157,0.845-0.35,1.19-0.583
						c0.35-0.232,0.63-0.511,0.847-0.841c0.218-0.328,0.354-0.705,0.404-1.127c0.053-0.425,0.01-0.897-0.129-1.416
						c-0.127-0.473-0.313-0.845-0.562-1.117c-0.247-0.275-0.542-0.489-0.879-0.643c-0.337-0.152-0.721-0.255-1.154-0.303
						c-0.432-0.049-0.883-0.083-1.358-0.094L550.867,613.837z"/>
					<path fill="#FFFFFF" d="M554.62,595.809l2.315-0.62l2.006,7.49l9.173-2.459l-2.006-7.49l2.319-0.62l4.665,17.419l-2.319,0.62
						l-2.136-7.977l-9.173,2.459l2.136,7.977l-2.315,0.62L554.62,595.809z"/>
					<path fill="#FFFFFF" d="M579.067,589.258l3.17-0.851l9.413,13.165l1.588-16.113l3.174-0.851l4.667,17.419l-2.198,0.59
						l-3.883-14.491l-0.046,0.012l-1.558,15.949l-1.976,0.529l-9.323-13.033l-0.05,0.013l3.881,14.491l-2.194,0.589L579.067,589.258
						z"/>
					<path fill="#FFFFFF" d="M605.004,582.308l2.56-0.687l11.474,15.595l-2.562,0.686l-3.31-4.734l-7.365,1.973l-0.548,5.768
						l-2.368,0.633L605.004,582.308z M606.008,592.994l5.906-1.583l-5.079-7.345l-0.049,0.012L606.008,592.994z"/>
					<path fill="#FFFFFF" d="M616.08,579.34l7.635-2.047c1.758-0.47,3.206-0.376,4.352,0.285c1.146,0.662,1.934,1.804,2.37,3.433
						c0.436,1.626,0.325,3.016-0.333,4.168c-0.659,1.152-1.869,1.955-3.631,2.408l-5.316,1.425l1.909,7.124l-2.32,0.621
						L616.08,579.34z M620.634,587.061l4.536-1.215c1.323-0.337,2.214-0.863,2.675-1.582c0.463-0.714,0.552-1.592,0.273-2.633
						c-0.279-1.043-0.794-1.753-1.55-2.134c-0.756-0.382-1.792-0.396-3.109-0.042l-4.538,1.215L620.634,587.061z"/>
				</g>
			</g>
		</g>
	</g>
</g>
</svg>
